<svg xmlns="http://www.w3.org/2000/svg" version="1.1" xmlns:xlink="http://www.w3.org/1999/xlink" xmlns:svgjs="http://svgjs.com/svgjs" width="255" height="255"><svg width="255" height="255" viewBox="0 0 255 255" fill="none" xmlns="http://www.w3.org/2000/svg">
<path d="M198.328 149.398C206.784 140.942 217.958 128.761 231.85 112.856C232.454 112.252 232.957 111.95 233.36 111.95C233.763 111.95 233.964 112.353 233.964 113.158C233.964 116.983 232.454 120.708 229.434 124.332C214.535 140.841 201.348 154.633 189.872 165.706C166.115 187.853 150.511 198.926 143.062 198.926C139.841 198.926 138.23 197.013 138.23 193.188C138.23 189.363 140.243 183.021 144.27 174.162C148.498 165.303 152.625 157.25 156.652 150.002C160.88 142.754 166.115 133.895 172.356 123.426C178.799 112.957 182.221 107.319 182.624 106.514C186.248 100.675 188.06 96.9507 188.06 95.34C188.06 94.3333 187.557 93.83 186.55 93.83L182.322 95.34C173.061 101.984 161.987 112.353 149.102 126.446C136.217 140.338 125.647 152.519 117.392 162.988L105.01 178.994C95.7487 192.282 86.6887 198.926 77.83 198.926C75.2127 198.926 73.904 198.121 73.904 196.51C73.904 194.698 75.8167 189.967 79.642 182.316C83.4673 174.464 87.2927 167.115 91.118 160.27L96.856 150.002C98.2653 147.183 101.688 141.143 107.124 131.882C112.761 122.419 117.392 114.366 121.016 107.722C124.841 100.877 126.754 96.6487 126.754 95.038C126.754 94.0313 126.351 93.528 125.546 93.528L121.318 95.34C111.855 101.984 100.681 112.353 87.796 126.446C74.9107 140.338 64.4413 152.519 56.388 162.988L44.006 178.994C34.5433 192.081 25.4833 198.624 16.826 198.624C14.2087 198.624 12.9 197.919 12.9 196.51C12.9 194.698 14.8127 189.967 18.638 182.316C22.4633 174.464 26.2887 167.115 30.114 160.27L35.852 150.002L65.146 98.058C69.978 88.998 75.8167 80.9447 82.662 73.898C89.5073 66.65 96.6547 63.026 104.104 63.026C105.715 63.026 106.52 63.7307 106.52 65.14C106.52 66.348 105.312 68.9653 102.896 72.992C100.681 76.8173 97.3593 82.2533 92.93 89.3C88.702 96.1453 85.078 102.487 82.058 108.326C80.246 111.749 78.0313 115.675 75.414 120.104C72.998 124.332 70.9847 127.956 69.374 130.976C67.7633 133.795 66.656 135.808 66.052 137.016C65.448 138.224 65.146 139.13 65.146 139.734C65.146 140.137 65.3473 140.338 65.75 140.338C66.354 140.338 67.3607 139.633 68.77 138.224C72.5953 133.795 77.528 128.258 83.568 121.614C89.8093 114.97 100.279 105.004 114.976 91.716C129.673 78.2267 141.753 69.1667 151.216 64.536C153.229 63.5293 155.243 63.026 157.256 63.026C160.075 63.026 161.484 64.4353 161.484 67.254C161.484 72.4887 155.545 86.0787 143.666 108.024C142.659 109.836 140.545 113.359 137.324 118.594C134.304 123.829 131.687 128.359 129.472 132.184C127.459 136.009 126.452 138.425 126.452 139.432C126.452 140.036 126.653 140.338 127.056 140.338C127.66 140.338 128.667 139.633 130.076 138.224C133.901 133.795 138.834 128.258 144.874 121.614C151.115 114.97 161.484 105.004 175.98 91.716C190.677 78.2267 202.757 69.1667 212.22 64.536C214.636 63.5293 216.75 63.026 218.562 63.026C221.582 63.026 223.092 64.4353 223.092 67.254C223.092 68.0593 222.689 69.8713 221.884 72.69C221.079 75.3073 218.763 80.844 214.938 89.3C211.113 97.5547 206.079 106.715 199.838 116.782C184.537 140.338 176.886 155.136 176.886 161.176C176.886 162.988 177.49 163.894 178.698 163.894C182.121 163.894 188.664 159.062 198.328 149.398Z" fill="black"></path>
</svg><style>@media (prefers-color-scheme: light) { :root { filter: none; } }
@media (prefers-color-scheme: dark) { :root { filter: invert(100%); } }
</style></svg>